<?xml version="1.0" encoding="utf-8"?>
<!-- Generator: Adobe Illustrator 21.0.2, SVG Export Plug-In . SVG Version: 6.00 Build 0)  -->
<svg version="1.1" id="Calque_1" xmlns="http://www.w3.org/2000/svg" xmlns:xlink="http://www.w3.org/1999/xlink" x="0px" y="0px"
	 viewBox="0 0 305.7 161" style="enable-background:new 0 0 305.7 161;" xml:space="preserve">
<style type="text/css">
	.st0{fill:#77B509;}
	.st1{fill:#0099FF;}
	.st2{fill:#FFFFFF;}
</style>
<g>
	<polygon class="st0" points="67.7,32.6 133,4.7 124.5,75.2 116,145.8 59.2,103.1 2.4,60.5 	"/>
	<polygon class="st1" points="182,65.5 211.6,97.5 169.2,107.2 126.7,116.9 139.5,75.2 152.4,33.6 	"/>
	<g>
		<path class="st2" d="M17.9,94c2.4-0.8,4.7-1.7,7-2.7c2.3-1,4.5-2.1,6.7-3.3c2.1-1.2,4.2-2.6,6.1-4.1c0.5-0.4,0.9-0.8,1.3-1.2
			c0.2-0.2,0.5-0.4,0.6-0.6l0.6-0.7c0.8-1,1.7-1.9,2.4-2.9l2.2-2.9l2.2-3c1.5-2,2.9-4.1,4.5-6.1l1.2-1.5l1.2-1.5
			c0.8-1,1.6-2,2.5-2.9l2.7-2.7c1-0.8,2-1.7,2.9-2.5l0.7-0.6c0.1-0.1,0.2-0.2,0.4-0.3l0.4-0.3l1.5-1.1c1.1-0.7,2.1-1.5,3.2-2.1
			c2.1-1.4,4.4-2.6,6.6-3.8c2.3-1.2,4.5-2.3,6.9-3.3c2.3-1,4.7-1.9,7.2-2.7c1.2-0.4,2.5-0.7,3.8-1c1.4-0.2,2.6-0.5,4.5-0.2l0.3,0.1
			l0.1,0l0,0c0,0-0.1,0,0.1,0l0.1,0l0.4,0.1l0.9,0.3c0.7,0.3,1.4,0.5,2.1,0.9c1.4,0.7,2.5,1.8,3.4,2.9c0.4,0.6,0.9,1.2,1.2,1.7
			c0.4,0.6,0.7,1.1,1,1.7c0.6,1,1.3,2.1,1.9,3.2l1.9,3.2c0.6,1.1,1.3,2,2,3l-3.4,0c0.6-0.9,1.2-1.7,1.8-2.6l1-1.3
			c0.4-0.4,0.6-0.8,1.1-1.3l0.3-0.3c0.1-0.1,0.2-0.2,0.4-0.4l0.5-0.4l0.2-0.2l0,0l0,0c0,0-0.3,0.2-0.1,0.1l0,0l0,0l0,0l0.1-0.1
			l0.6-0.5c0.2-0.2,0.4-0.3,0.5-0.5c0.3-0.3,0.5-0.5,0.9-0.9c0.3-0.4,0.7-0.7,1-1.1l1.6-1.8l1.6,1.8c0.8,1,1.6,1.9,2.3,2.9
			c0.7,1,1.5,2,2.1,3.6c0.3,1,0.3,1.4,0.5,2l0.3,1.7c0.2,1.1,0.4,2.3,0.7,3.4c0.2,1.1,0.5,2.2,0.8,3.2c0.2,0.5,0.3,1,0.5,1.4
			c0.2,0.5,0.2,0.4,0.7,1c0.8,0.9,1.5,1.9,2.3,2.8c0.7,0.9,1.4,1.8,2.2,2.6c0.4,0.4,0.8,0.8,1.1,1.2l1.3,1.2l2.5,2.5
			c0.9,0.8,1.7,1.7,2.5,2.6c0.4,0.5,0.8,0.9,1.2,1.4l0.6,0.8c0.2,0.3,0.4,0.5,0.6,0.9l0.5,1c0.1,0.2,0.2,0.5,0.4,0.8
			c0.1,0.3,0.2,0.5,0.3,0.7c0.1,0.2,0.2,0.4,0.4,0.6c0.5,0.8,1.1,1.4,2,2c0.2,0.1,0.4,0.3,0.7,0.4l0.3,0.2l0.1,0l0,0l0,0l0,0
			c0.1,0-0.1-0.1-0.1,0l0.2,0.1c0.4,0.2,0.3,0.1,0.4,0.1c0.1,0,0.3,0,0.5,0c0.3,0,0.7-0.2,1.1-0.4c0.4-0.2,0.8-0.5,1.1-0.7l0.9-0.8
			l1,0.6l4.2,2.6l-0.9-0.2l5-0.3l0.1,0l0.1,0l6.3,0.6l0.2,0l0.1,0.1l6.7,2.7l0.1,0.1l0.1,0.1l4.9,3.5l-1,0l9.4-4.8l0.3-0.1l0.2,0.1
			l8.1,2.8l8.1,2.9l-8.3-2.2l-8.3-2.2l0.5,0l-9.1,5.3l-0.5,0.3l-0.5-0.3l-5.1-3.2l0.2,0.1l-6.8-2.4l0.4,0.1l-6.3-0.3l0.2,0l-5,0.5
			l-0.5,0l-0.4-0.3l-4.2-2.5l1.9-0.2c-0.6,0.6-1.1,1-1.8,1.3c-0.6,0.4-1.4,0.6-2.2,0.8c-0.4,0.1-0.9,0.1-1.3,0
			c-0.4,0-1.1-0.2-1.3-0.3l-0.2-0.1l-0.2-0.1l-0.1,0l-0.1-0.1l-0.4-0.2c-0.3-0.1-0.6-0.3-0.9-0.5c-1.2-0.7-2.3-1.7-3-2.9
			c-0.2-0.3-0.4-0.6-0.6-0.9c-0.2-0.3-0.4-0.6-0.5-0.9c-0.1-0.3-0.2-0.5-0.4-0.8l-0.3-0.6c-0.2-0.4-0.6-0.8-0.9-1.2
			c-0.3-0.4-0.7-0.8-1.1-1.2c-0.8-0.8-1.6-1.6-2.4-2.4l-2.6-2.4l-1.3-1.2c-0.5-0.4-0.9-0.9-1.3-1.3c-0.9-0.9-1.7-1.8-2.4-2.7
			c-0.7-0.9-1.4-1.7-2.2-2.6l-0.3-0.3c0,0-0.1-0.1,0,0l-0.1-0.2l-0.2-0.3c-0.2-0.2-0.3-0.4-0.4-0.6c-0.1-0.2-0.2-0.4-0.3-0.5
			c-0.3-0.7-0.5-1.3-0.7-1.9c-0.4-1.2-0.7-2.4-0.9-3.6c-0.3-1.2-0.5-2.4-0.7-3.5l-0.3-1.7c-0.1-0.5-0.2-1.3-0.3-1.4
			c-0.2-0.6-0.9-1.6-1.5-2.5c-0.6-0.9-1.4-1.8-2.1-2.6l3.1-0.1c-0.4,0.4-0.7,0.8-1.1,1.2c-0.3,0.4-0.8,0.9-1.2,1.3
			c-0.2,0.2-0.4,0.4-0.6,0.6l-0.6,0.5l-0.1,0.1l0,0l-0.2,0.1l0,0l-0.1,0.1c0,0-0.1,0.1-0.1,0.1c0,0-0.1,0.1-0.2,0.2l-0.2,0.2
			c-0.3,0.3-0.6,0.7-0.9,1.1l-0.9,1.2c-0.6,0.8-1.2,1.6-1.7,2.4l-1.8,2.6l-1.7-2.6c-0.7-1.1-1.5-2.2-2.1-3.3l-1.9-3.2
			c-0.6-1.1-1.3-2.1-1.9-3.3c-0.3-0.5-0.6-1.1-0.9-1.5c-0.3-0.5-0.6-0.9-0.9-1.4c-1.3-1.6-2.9-2.4-5.1-3c-0.3-0.1-0.8,0-1.3,0
			c-0.5,0.1-1.1,0.1-1.6,0.2c-1.1,0.2-2.3,0.5-3.4,0.8c-2.3,0.7-4.6,1.5-6.9,2.4c-2.3,0.9-4.5,2-6.7,3c-2.2,1.1-4.4,2.2-6.5,3.5
			C69,54.5,68,55.1,67,55.8l-1.6,1l-0.4,0.3l-0.3,0.3L64,57.9l-2.8,2.2l-2.6,2.5c-0.9,0.8-1.7,1.8-2.5,2.7l-1.2,1.4l-1.2,1.4
			c-1.6,1.9-3.1,3.8-4.7,5.8l-2.3,2.9c-0.8,1-1.6,2-2.5,2.9c-0.8,1-1.7,1.8-2.6,2.7l-0.7,0.7c-0.3,0.3-0.5,0.4-0.8,0.7
			c-0.5,0.4-1,0.9-1.5,1.2c-2.1,1.5-4.3,2.8-6.5,3.9C27.5,91.1,22.8,92.8,17.9,94z"/>
	</g>
	<g>
		<g>
			<path class="st0" d="M140.4,126.1l-5.9,14.6h-1.9l-5.9-14.6h1.8l5,12.7l5-12.7H140.4z"/>
			<path class="st0" d="M154.1,140.7h-1.8l-1.8-4.2h-7.2l-1.8,4.2h-1.8l6.2-14.6h2.1L154.1,140.7z M149.8,134.9l-3-7.1l-3,7.1H149.8
				z"/>
			<path class="st0" d="M157.5,126.1v13h7.9v1.6h-9.6v-14.6H157.5z"/>
			<path class="st0" d="M169.3,126.1v13h7.9v1.6h-9.6v-14.6H169.3z"/>
			<path class="st0" d="M181,127.7v4.9h8.1v1.6H181v4.9h9.1v1.6h-10.7v-14.6h10.7v1.6H181z M184.8,122.6h2.4l-2.4,2.3h-1.3
				L184.8,122.6z"/>
			<path class="st0" d="M194.4,127.7v4.9h8.1v1.6h-8.1v4.9h9.1v1.6h-10.7v-14.6h10.7v1.6H194.4z"/>
			<path class="st0" d="M223.6,133.4c0,4.6-3.2,7.3-6.7,7.3h-6.1v-14.6h6.1C220.4,126.1,223.6,128.9,223.6,133.4z M222,133.4
				c0-3.1-2-5.7-5.1-5.7h-4.4v11.4h4.4C220,139.1,222,136.5,222,133.4z"/>
			<path class="st0" d="M226.6,125.6h2.2l-1.9,4.7h-1.5L226.6,125.6z"/>
			<path class="st0" d="M244.6,133.4c0,4.1-3,7.5-7.4,7.5c-4.4,0-7.4-3.3-7.4-7.5c0-4.1,3-7.5,7.4-7.5
				C241.6,125.9,244.6,129.3,244.6,133.4z M242.9,133.4c0-3.3-2.2-5.9-5.7-5.9c-3.5,0-5.7,2.6-5.7,5.9c0,3.3,2.2,5.9,5.7,5.9
				C240.7,139.3,242.9,136.7,242.9,133.4z"/>
			<path class="st0" d="M258.2,136.7c0,2.7-2.2,4.2-5.8,4.2c-4.3,0-6.1-1.9-6.3-4.5h1.7c0.1,2.1,2.2,3,4.7,3c2.5,0,4-0.9,4-2.6
				c0-3.6-10-1.8-10-6.8c0-2.4,1.8-4,5.5-4c3.9,0,5.6,2,5.8,4.2h-1.7c-0.2-1.5-1.4-2.6-4.1-2.6c-3.3,0-3.9,1.5-3.9,2.5
				C248.2,133.3,258.2,131.6,258.2,136.7z"/>
			<path class="st0" d="M271.7,136.7c0,2.7-2.2,4.2-5.8,4.2c-4.3,0-6.1-1.9-6.3-4.5h1.7c0.1,2.1,2.2,3,4.7,3c2.5,0,4-0.9,4-2.6
				c0-3.6-10-1.8-10-6.8c0-2.4,1.8-4,5.5-4c3.9,0,5.6,2,5.8,4.2h-1.7c-0.2-1.5-1.4-2.6-4.1-2.6c-3.3,0-3.9,1.5-3.9,2.5
				C261.7,133.3,271.7,131.6,271.7,136.7z"/>
			<path class="st0" d="M287,140.7h-1.8l-1.8-4.2h-7.2l-1.8,4.2h-1.8l6.2-14.6h2.1L287,140.7z M282.7,134.9l-3-7.1l-3,7.1H282.7z"/>
			<path class="st0" d="M300.5,126.1v8.3c0,3.9-2.6,6.4-6.2,6.4c-3.6,0-6.2-2.6-6.2-6.4v-8.3h1.6v8.3c0,3.4,2.2,4.8,4.5,4.8
				c2.3,0,4.6-1.4,4.6-4.8v-8.3H300.5z"/>
			<path class="st1" d="M133.6,153.3h0.9c-0.5,1.5-1.8,2.5-3.6,2.5c-2.4,0-3.8-1.8-3.8-4.1s1.5-4.1,3.8-4.1c1.8,0,3.1,1,3.6,2.5
				h-0.9c-0.4-1-1.3-1.6-2.6-1.6c-1.9,0-3,1.4-3,3.2c0,1.8,1.1,3.2,3,3.2C132.4,154.9,133.2,154.3,133.6,153.3z"/>
			<path class="st1" d="M143.4,151.7c0,2.3-1.6,4.1-4,4.1c-2.4,0-4-1.8-4-4.1s1.6-4.1,4-4.1C141.8,147.7,143.4,149.5,143.4,151.7z
				 M142.5,151.7c0-1.8-1.2-3.2-3.1-3.2c-1.9,0-3.1,1.4-3.1,3.2c0,1.8,1.2,3.2,3.1,3.2C141.3,154.9,142.5,153.5,142.5,151.7z"/>
			<path class="st1" d="M152.6,147.8v7.9h-0.9v-6.6l-2.9,3.8l-3-3.8v6.6h-0.9v-7.9h1l2.8,3.8l2.8-3.8H152.6z"/>
			<path class="st1" d="M162.3,147.8v7.9h-0.9v-6.6l-2.9,3.8l-3-3.8v6.6h-0.9v-7.9h1l2.8,3.8l2.8-3.8H162.3z"/>
			<path class="st1" d="M170.9,147.8v4.5c0,2.1-1.4,3.5-3.4,3.5c-2,0-3.4-1.4-3.4-3.5v-4.5h0.9v4.5c0,1.8,1.2,2.6,2.5,2.6
				c1.3,0,2.5-0.8,2.5-2.6v-4.5H170.9z"/>
			<path class="st1" d="M179.6,147.8v7.9h-1l-4.9-6.7v6.7h-0.9v-7.9h1l4.9,6.7v-6.7H179.6z"/>
			<path class="st1" d="M188.5,155.7h-1l-1-2.3h-3.9l-1,2.3h-1l3.4-7.9h1.1L188.5,155.7z M186.1,152.6l-1.6-3.9l-1.6,3.9H186.1z"/>
			<path class="st1" d="M195.8,147.8v4.5c0,2.1-1.4,3.5-3.4,3.5c-2,0-3.4-1.4-3.4-3.5v-4.5h0.9v4.5c0,1.8,1.2,2.6,2.5,2.6
				c1.3,0,2.5-0.8,2.5-2.6v-4.5H195.8z"/>
			<path class="st1" d="M203.3,148.6h-2.8v7.1h-0.9v-7.1h-2.8v-0.9h6.4V148.6z"/>
			<path class="st1" d="M205.4,148.6v2.7h4.4v0.9h-4.4v2.7h4.9v0.9h-5.8v-7.9h5.8v0.9H205.4z M207.4,145.9h1.3l-1.3,1.3h-0.7
				L207.4,145.9z"/>
			<path class="st1" d="M221.3,151.7c0,2.5-1.8,4-3.6,4h-3.3v-7.9h3.3C219.6,147.8,221.3,149.2,221.3,151.7z M220.4,151.7
				c0-1.7-1.1-3.1-2.8-3.1h-2.4v6.2h2.4C219.3,154.8,220.4,153.4,220.4,151.7z"/>
			<path class="st1" d="M223.7,148.6v2.7h4.4v0.9h-4.4v2.7h4.9v0.9h-5.8v-7.9h5.8v0.9H223.7z"/>
			<path class="st1" d="M238.6,153.3h0.9c-0.5,1.5-1.8,2.5-3.6,2.5c-2.4,0-3.8-1.8-3.8-4.1s1.5-4.1,3.8-4.1c1.8,0,3.1,1,3.6,2.5
				h-0.9c-0.4-1-1.3-1.6-2.6-1.6c-1.9,0-3,1.4-3,3.2c0,1.8,1.1,3.2,3,3.2C237.3,154.9,238.2,154.3,238.6,153.3z"/>
			<path class="st1" d="M248.4,151.7c0,2.3-1.6,4.1-4,4.1c-2.4,0-4-1.8-4-4.1s1.6-4.1,4-4.1C246.8,147.7,248.4,149.5,248.4,151.7z
				 M247.5,151.7c0-1.8-1.2-3.2-3.1-3.2c-1.9,0-3.1,1.4-3.1,3.2c0,1.8,1.2,3.2,3.1,3.2C246.3,154.9,247.5,153.5,247.5,151.7z"/>
			<path class="st1" d="M257.6,147.8v7.9h-0.9v-6.6l-2.9,3.8l-3-3.8v6.6h-0.9v-7.9h1l2.8,3.8l2.8-3.8H257.6z"/>
			<path class="st1" d="M267.2,147.8v7.9h-0.9v-6.6l-2.9,3.8l-3-3.8v6.6h-0.9v-7.9h1l2.8,3.8l2.8-3.8H267.2z"/>
			<path class="st1" d="M275.8,147.8v4.5c0,2.1-1.4,3.5-3.4,3.5c-2,0-3.4-1.4-3.4-3.5v-4.5h0.9v4.5c0,1.8,1.2,2.6,2.5,2.6
				c1.3,0,2.5-0.8,2.5-2.6v-4.5H275.8z"/>
			<path class="st1" d="M284.5,147.8v7.9h-1l-4.9-6.7v6.7h-0.9v-7.9h1l4.9,6.7v-6.7H284.5z"/>
			<path class="st1" d="M287.4,148.6v2.7h4.4v0.9h-4.4v2.7h4.9v0.9h-5.8v-7.9h5.8v0.9H287.4z"/>
			<path class="st1" d="M299.7,153.5c0,1.5-1.2,2.3-3.1,2.3c-2.3,0-3.3-1-3.4-2.5h0.9c0.1,1.2,1.2,1.6,2.6,1.6
				c1.3,0,2.2-0.5,2.2-1.4c0-1.9-5.4-1-5.4-3.7c0-1.3,1-2.2,3-2.2c2.1,0,3.1,1.1,3.1,2.3h-0.9c-0.1-0.8-0.8-1.4-2.2-1.4
				c-1.8,0-2.1,0.8-2.1,1.3C294.2,151.7,299.7,150.7,299.7,153.5z"/>
		</g>
	</g>
</g>
</svg>
